<svg xmlns="http://www.w3.org/2000/svg" version="1.1" xmlns:xlink="http://www.w3.org/1999/xlink" xmlns:svgjs="http://svgjs.dev/svgjs" width="1000" height="156" viewBox="0 0 1000 156"><g transform="matrix(1,0,0,1,-0.6060606060606233,-0.12751982270162898)"><svg viewBox="0 0 396 62" data-background-color="#ffffff" preserveAspectRatio="xMidYMid meet" height="156" width="1000" xmlns="http://www.w3.org/2000/svg" xmlns:xlink="http://www.w3.org/1999/xlink"><g id="tight-bounds" transform="matrix(1,0,0,1,0.2400000000000091,0.0506809551762899)"><svg viewBox="0 0 395.52 61.898638089647406" height="61.898638089647406" width="395.52"><g><svg viewBox="0 0 395.52 61.898638089647406" height="61.898638089647406" width="395.52"><g transform="matrix(1,0,0,1,0,38.25584158960409)"><svg viewBox="0 0 395.52 23.642796500043314" height="23.642796500043314" width="395.52"><g id="textblocktransform"><svg viewBox="0 0 395.52 23.642796500043314" height="23.642796500043314" width="395.52" id="textblock"><g><svg viewBox="0 0 395.52 23.642796500043314" height="23.642796500043314" width="395.52"><g transform="matrix(1,0,0,1,0,0)"><svg width="395.52" viewBox="4.199999809265137 -33.08000183105469 563.5700073242188 33.69000244140625" height="23.642796500043314" data-palette-color="#02a58d"><path d="M20.36 0.2L14.7-12.62Q13.96-12.57 13.13-12.57 12.3-12.57 10.67-12.7L10.67-12.7 10.67 0 4.2 0 4.2-32.64Q7.62-33.08 12.6-33.08L12.6-33.08Q19.38-33.08 22.72-30.58 26.05-28.08 26.05-22.85L26.05-22.85Q26.05-18.8 23-15.92L23-15.92Q22-14.99 20.7-14.31L20.7-14.31 25.68-3.81Q27.15-0.56 27.93 0.05L27.93 0.05 27.81 0.17Q25.44-0.22 20.36 0.2L20.36 0.2ZM13.06-27.32L13.06-27.32Q11.82-27.32 10.67-27.2L10.67-27.2 10.67-17.87Q11.87-17.7 13.48-17.7 15.09-17.7 16.19-17.98 17.29-18.26 18.09-18.85L18.09-18.85Q19.82-20.14 19.82-22.73 19.82-25.32 18.02-26.37L18.02-26.37Q16.33-27.32 13.06-27.32ZM39.69-5.86L49.66-5.86Q51.17-5.86 51.76-6.15L51.76-6.15 51.85-6.13 51.61 0 33.32 0 33.32-32.64Q33.98-32.59 34.79-32.57L34.79-32.57 36.5-32.52Q38.21-32.47 40.21-32.47L40.21-32.47Q45.8-32.47 51.27-32.67L51.27-32.67Q51-30.52 51-26.93L51-26.93Q51-26.54 51.05-26.34L51.05-26.34 51-26.27Q49.73-26.64 47.39-26.64L47.39-26.64 39.69-26.64 39.69-20.41 45.48-20.41Q48.17-20.41 48.7-20.56L48.7-20.56 48.78-14.53Q47.6-14.65 45.75-14.65L45.75-14.65 39.69-14.65 39.69-5.86ZM72.31 0.02L72.26 0.1Q71.48 0 69.7 0L69.7 0 67.01 0Q66.35 0 65.82 0.05L65.82 0.05 65.79 0Q65.89-0.17 65.89-0.39 65.89-0.61 65.85-0.85 65.82-1.1 65.64-1.73 65.47-2.37 65.11-3.56L65.11-3.56 64.08-6.84 55-32.57Q56.51-32.47 58.86-32.47 61.2-32.47 61.86-32.67L61.86-32.67 69.21-10.47 75.65-32.57Q77.12-32.47 79.27-32.47L79.27-32.47Q82.2-32.47 82.69-32.67L82.69-32.67 73.77-6.91Q73.77-6.91 72.92-4.05L72.92-4.05Q72.21-1.61 72.21-0.89 72.21-0.17 72.31 0.02L72.31 0.02ZM88.25 0L88.25-32.57Q90.69-32.47 91.2-32.47L91.2-32.47 92.96-32.47Q94.26-32.47 95.04-32.67L95.04-32.67 95.01 0 88.25 0ZM110.56-5.86L120.52-5.86Q122.04-5.86 122.62-6.15L122.62-6.15 122.72-6.13 122.48 0 104.19 0 104.19-32.64Q104.85-32.59 105.65-32.57L105.65-32.57 107.36-32.52Q109.07-32.47 111.07-32.47L111.07-32.47Q116.66-32.47 122.13-32.67L122.13-32.67Q121.87-30.52 121.87-26.93L121.87-26.93Q121.87-26.54 121.91-26.34L121.91-26.34 121.87-26.27Q120.6-26.64 118.25-26.64L118.25-26.64 110.56-26.64 110.56-20.41 116.35-20.41Q119.03-20.41 119.57-20.56L119.57-20.56 119.64-14.53Q118.47-14.65 116.62-14.65L116.62-14.65 110.56-14.65 110.56-5.86ZM140.91 0.02L140.86 0.1Q140.12 0 138.37 0L138.37 0 135.53 0Q134.7 0 134.17 0.05L134.17 0.05 134.14 0Q134.24-0.17 134.24-0.39 134.24-0.61 134.2-0.85 134.17-1.1 134.01-1.73 133.85-2.37 133.53-3.56L133.53-3.56 125.23-32.57Q126.79-32.47 129.02-32.47 131.24-32.47 131.9-32.67L131.9-32.67 137.66-10.57 143.27-32.57Q143.64-32.54 143.93-32.52L143.93-32.52 144.47-32.52Q145.28-32.47 146.5-32.47 147.72-32.47 149.01-32.67L149.01-32.67 154.72-10.57 159.63-32.57Q161.1-32.47 163.46-32.47 165.83-32.47 166.34-32.67L166.34-32.67 159.31-6.91Q157.97-2.47 157.9-1.64 157.82-0.81 157.82-0.49 157.82-0.17 157.92 0.02L157.92 0.02 157.87 0.1Q157.09 0 155.41 0L155.41 0Q153.94 0 152.75 0 151.55 0 151.01 0.05L151.01 0.05 150.99 0Q151.09-0.17 151.09-0.39 151.09-0.61 151.06-0.83 151.04-1.05 150.93-1.67 150.82-2.29 150.57-3.52L150.57-3.52 149.91-6.84 145.91-22.05 142.1-6.91Q140.93-2.25 140.88-1.54L140.88-1.54Q140.78-0.2 140.91 0.02L140.91 0.02ZM190.22-3.86Q188-5.98 186.71-8.96 185.43-11.94 185.43-15.49 185.43-19.04 186.63-22.22 187.82-25.39 190.05-27.81 192.27-30.22 195.42-31.65 198.57-33.08 202.47-33.08L202.47-33.08Q209.21-33.08 213.83-28.83L213.83-28.83Q218.76-24.29 218.76-16.58L218.76-16.58Q218.76-9.11 213.68-4.15L213.68-4.15Q210.55-1.1 206.23 0.05L206.23 0.05Q204.11 0.61 201.26 0.61 198.42 0.61 195.43-0.56 192.44-1.73 190.22-3.86ZM192.22-15.82L192.22-15.82Q192.22-13.55 192.98-11.65 193.73-9.74 195.08-8.37L195.08-8.37Q197.93-5.49 202.42-5.49L202.42-5.49Q206.7-5.49 209.28-8.25L209.28-8.25Q211.92-11.11 211.92-16.04L211.92-16.04Q211.92-20.68 209.41-23.78L209.41-23.78Q206.7-27.1 201.98-27.1L201.98-27.1Q197.42-27.1 194.73-23.73L194.73-23.73Q192.22-20.58 192.22-15.82ZM231.62 0L225.25 0Q225.4-0.83 225.4-1.81L225.4-1.81 225.4-32.47 230.28-32.47 243.22-12.11 243.22-30.81Q243.22-32.15 242.97-32.47L242.97-32.47 249.56-32.47Q249.44-31.49 249.44-30.32L249.44-30.32 249.44 0 244.36 0 231.62-19.56 231.62 0ZM265.29 0L262.97 0Q259.38 0 258.21 0.15L258.21 0.15 258.21-32.62Q258.79-32.47 260.63-32.47 262.48-32.47 264.92-32.57L264.92-32.57 264.92-5.86 269.97-5.86Q272.17-5.86 273.49-6.01L273.49-6.01Q273.32-0.29 273.32-0.07L273.32-0.07 273.32 0.17Q270.92 0 265.29 0L265.29 0ZM279.83 0L279.83-32.57Q282.27-32.47 282.79-32.47L282.79-32.47 284.55-32.47Q285.84-32.47 286.62-32.67L286.62-32.67 286.6 0 279.83 0ZM302.37 0L295.99 0Q296.14-0.83 296.14-1.81L296.14-1.81 296.14-32.47 301.02-32.47 313.96-12.11 313.96-30.81Q313.96-32.15 313.72-32.47L313.72-32.47 320.31-32.47Q320.19-31.49 320.19-30.32L320.19-30.32 320.19 0 315.11 0 302.37-19.56 302.37 0ZM335.32-5.86L345.28-5.86Q346.8-5.86 347.38-6.15L347.38-6.15 347.48-6.13 347.24 0 328.95 0 328.95-32.64Q329.61-32.59 330.41-32.57L330.41-32.57 332.12-32.52Q333.83-32.47 335.83-32.47L335.83-32.47Q341.43-32.47 346.89-32.67L346.89-32.67Q346.63-30.52 346.63-26.93L346.63-26.93Q346.63-26.54 346.67-26.34L346.67-26.34 346.63-26.27Q345.36-26.64 343.01-26.64L343.01-26.64 335.32-26.64 335.32-20.41 341.11-20.41Q343.79-20.41 344.33-20.56L344.33-20.56 344.4-14.53Q343.23-14.65 341.38-14.65L341.38-14.65 335.32-14.65 335.32-5.86ZM385.12-33.08L385.12-33.08Q389.69-33.08 392.91-31.49L392.91-31.49 392.91-24.02 392.86-23.97Q391.49-26.07 387.1-26.76L387.1-26.76Q385.8-26.98 383.83-26.98 381.85-26.98 379.95-26.23 378.04-25.49 376.82-24.12L376.82-24.12Q374.45-21.46 374.45-16.53L374.45-16.53Q374.45-10.79 377.46-7.98L377.46-7.98Q379.95-5.64 384.05-5.64L384.05-5.64Q388.69-5.64 391.57-7.62L391.57-7.62Q392.62-8.33 393.35-9.38L393.35-9.38 393.42-9.33 393.42-2.49Q389.69 0.61 383.36 0.61L383.36 0.61Q375.92 0.61 371.69-4.13L371.69-4.13Q367.64-8.64 367.64-16.09L367.64-16.09Q367.64-23.97 372.08-28.52L372.08-28.52Q376.58-33.08 385.12-33.08ZM404.23-7.03L401.94 0.2Q399.84 0 397.03 0L397.03 0 395.1 0 405.72-29.76Q406.43-31.76 406.43-32.09 406.43-32.42 406.41-32.5L406.41-32.5 406.43-32.54Q408.02-32.47 409.8-32.47L409.8-32.47Q411.27-32.47 413.32-32.52L413.32-32.52 413.34-32.47Q413.29-32.37 413.29-32.2L413.29-32.2Q413.29-31.74 414.03-29.74L414.03-29.74 424.86 0.07Q424.38 0.05 423.72 0.05L423.72 0.05Q423.72 0.05 422.45 0L422.45 0Q421.84 0 421.35 0L421.35 0 417.57 0 415.27-7.03 404.23-7.03ZM406.09-12.89L413.37-12.89 409.68-24.24 406.09-12.89ZM448.4-30.66L448.4-30.66 447.93-23.49 447.76-23.44Q445.96-26.15 441.61-26.95L441.61-26.95Q440.24-27.22 438.99-27.22 437.73-27.22 436.84-27 435.95-26.78 435.31-26.37L435.31-26.37Q433.97-25.49 433.97-24.07L433.97-24.07Q433.97-22.22 435.14-21.29L435.14-21.29Q436.61-20.17 440-19.71 443.39-19.26 445.44-18.48 447.49-17.7 448.81-16.5L448.81-16.5Q451.3-14.26 451.3-10.16L451.3-10.16Q451.3-4.79 447.25-1.88L447.25-1.88Q443.78 0.61 438.51 0.61L438.51 0.61Q434.26 0.61 430.11-1L430.11-1Q428.74-1.54 427.72-2.25L427.72-2.25 427.99-10.4 428.09-10.47Q431.11-5.25 438.02-5.25L438.02-5.25Q442.93-5.25 444.52-7.62L444.52-7.62Q445.05-8.42 445.05-9.41 445.05-10.4 444.74-11.05 444.42-11.69 443.69-12.16L443.69-12.16Q442.27-13.09 438.92-13.4 435.58-13.72 433.46-14.6 431.33-15.48 430.06-16.77L430.06-16.77Q427.77-19.12 427.77-23.32L427.77-23.32Q427.77-27.66 430.82-30.35L430.82-30.35Q433.92-33.08 439.18-33.08 444.44-33.08 448.4-30.66ZM458.67 0L458.67-32.57Q461.11-32.47 461.63-32.47L461.63-32.47 463.39-32.47Q464.68-32.47 465.46-32.67L465.46-32.67 465.44 0 458.67 0ZM481.21 0L474.83 0Q474.98-0.83 474.98-1.81L474.98-1.81 474.98-32.47 479.86-32.47 492.8-12.11 492.8-30.81Q492.8-32.15 492.56-32.47L492.56-32.47 499.15-32.47Q499.03-31.49 499.03-30.32L499.03-30.32 499.03 0 493.95 0 481.21-19.56 481.21 0ZM510.45-3.86Q508.23-5.98 506.95-8.96 505.67-11.94 505.67-15.49 505.67-19.04 506.86-22.22 508.06-25.39 510.28-27.81 512.5-30.22 515.65-31.65 518.8-33.08 522.71-33.08L522.71-33.08Q529.44-33.08 534.06-28.83L534.06-28.83Q538.99-24.29 538.99-16.58L538.99-16.58Q538.99-9.11 533.91-4.15L533.91-4.15Q530.79-1.1 526.47 0.05L526.47 0.05Q524.34 0.61 521.5 0.61 518.65 0.61 515.66-0.56 512.67-1.73 510.45-3.86ZM512.45-15.82L512.45-15.82Q512.45-13.55 513.21-11.65 513.97-9.74 515.31-8.37L515.31-8.37Q518.17-5.49 522.66-5.49L522.66-5.49Q526.93-5.49 529.52-8.25L529.52-8.25Q532.15-11.11 532.15-16.04L532.15-16.04Q532.15-20.68 529.64-23.78L529.64-23.78Q526.93-27.1 522.22-27.1L522.22-27.1Q517.65-27.1 514.97-23.73L514.97-23.73Q512.45-20.58 512.45-15.82ZM564.87-30.66L564.87-30.66 564.4-23.49 564.23-23.44Q562.43-26.15 558.08-26.95L558.08-26.95Q556.71-27.22 555.46-27.22 554.2-27.22 553.31-27 552.42-26.78 551.78-26.37L551.78-26.37Q550.44-25.49 550.44-24.07L550.44-24.07Q550.44-22.22 551.61-21.29L551.61-21.29Q553.08-20.17 556.47-19.71 559.86-19.26 561.91-18.48 563.96-17.7 565.28-16.5L565.28-16.5Q567.77-14.26 567.77-10.16L567.77-10.16Q567.77-4.79 563.72-1.88L563.72-1.88Q560.25 0.61 554.98 0.61L554.98 0.61Q550.73 0.61 546.58-1L546.58-1Q545.21-1.54 544.19-2.25L544.19-2.25 544.46-10.4 544.55-10.47Q547.58-5.25 554.49-5.25L554.49-5.25Q559.4-5.25 560.99-7.62L560.99-7.62Q561.52-8.42 561.52-9.41 561.52-10.4 561.2-11.05 560.89-11.69 560.16-12.16L560.16-12.16Q558.74-13.09 555.39-13.4 552.05-13.72 549.93-14.6 547.8-15.48 546.53-16.77L546.53-16.77Q544.24-19.12 544.24-23.32L544.24-23.32Q544.24-27.66 547.29-30.35L547.29-30.35Q550.39-33.08 555.65-33.08 560.91-33.08 564.87-30.66Z" opacity="1" transform="matrix(1,0,0,1,0,0)" fill="#02a58d" class="wordmark-text-0" data-fill-palette-color="primary" id="text-0"></path></svg></g></svg></g></svg></g></svg></g><g transform="matrix(1,0,0,1,173.30377441898972,0)"><svg viewBox="0 0 48.912451162020545 32.674344763059864" height="32.674344763059864" width="48.912451162020545"><g><svg xmlns="http://www.w3.org/2000/svg" xmlns:xlink="http://www.w3.org/1999/xlink" version="1.1" x="8" y="0" viewBox="4.672153472900391 5 90.65585327148438 90" enable-background="new 0 0 100 100" xml:space="preserve" height="32.674344763059864" width="32.912451162020545" class="icon-icon-0" data-fill-palette-color="accent" id="icon-0"><path fill-rule="evenodd" clip-rule="evenodd" d="M50.328 95c-9.439 0-18.197-2.913-25.434-7.88L8.345 89.155c-2.749 0.348-4.289-1.511-3.439-4.147l4.908-15.403C6.941 63.678 5.328 57.028 5.328 50c0-24.854 20.147-45 45-45 24.853 0 45 20.147 45 45C95.328 74.853 75.181 95 50.328 95zM78.639 42.462l-14.713-5.255L58.27 22.361c-1.071-2.837-3.655-3.376-5.771-1.206L41.29 32.577 26.411 31.55c-3.024-0.218-4.598 1.901-3.515 4.733l6.301 16.641-4.764 14.947c-0.93 2.886 0.755 4.919 3.763 4.538l17.378-2.138 15.068 8.918c2.605 1.552 4.963 0.365 5.267-2.651l1.62-15.606 12.436-12.726C82.092 46.045 81.497 43.473 78.639 42.462z" fill="#ff4704" data-fill-palette-color="accent"></path></svg></g></svg></g><g><rect width="173.30377441898972" height="2.132131787739894" y="29.54221297531997" x="222.21622558101026" fill="#ff4704" data-fill-palette-color="accent"></rect><rect width="173.30377441898972" height="2.132131787739894" y="29.54221297531997" x="0" fill="#ff4704" data-fill-palette-color="accent"></rect><rect width="173.30377441898972" height="2.132131787739894" y="25.277949399840182" x="222.21622558101026" fill="#ff4704" data-fill-palette-color="accent"></rect><rect width="173.30377441898972" height="2.132131787739894" y="25.277949399840182" x="0" fill="#ff4704" data-fill-palette-color="accent"></rect></g></svg></g><defs></defs></svg><rect width="395.52" height="61.898638089647406" fill="none" stroke="none" visibility="hidden"></rect></g></svg></g></svg>